<?xml version="1.0" encoding="UTF-8" standalone="no"?>
<!DOCTYPE svg PUBLIC "-//W3C//DTD SVG 1.1//EN" "http://www.w3.org/Graphics/SVG/1.1/DTD/svg11.dtd">
<svg width="100%" height="100%" viewBox="0 0 2182 621" version="1.1" xmlns="http://www.w3.org/2000/svg" xmlns:xlink="http://www.w3.org/1999/xlink" xml:space="preserve" xmlns:serif="http://www.serif.com/" style="fill-rule:evenodd;clip-rule:evenodd;stroke-linejoin:round;stroke-miterlimit:2;">
    <g transform="matrix(1,0,0,1,-140.099523,-1394.468276)">
        <g>
            <g transform="matrix(2.293945,0,0,2.293945,66,957)">
                <path d="M622.531,191.374C623.647,191.253 677.39,190.177 686.532,191.034C694.132,191.747 894.291,200.284 893.893,213.517C893.766,217.746 864.683,212.818 863.994,214.648C862.96,217.394 879.646,223.464 880.457,223.628C899.453,227.483 957.726,265.165 966.948,280.277C971.093,287.072 974.058,286.953 975.155,288.74C995.022,321.126 972.385,346.873 968.576,348.642C959.741,352.745 961.068,354.494 958.352,356.266C956.848,357.247 941.859,367.022 939.363,368.215C898.365,387.822 857.233,396.879 792.544,410.727C764.209,416.792 690.639,428.985 677.498,430.473C673.477,430.928 405.964,465.35 257.488,460.699C247.176,460.376 219.454,461.918 145.518,451.385C-11.789,428.975 20.543,345.591 88.666,304.792C128.632,280.855 191.268,258.231 193.33,257.135C201.379,252.862 287.394,228.604 294.551,227.924C304.825,226.947 325.81,221.942 339.629,217.904C343.516,216.768 429.782,204.172 440.55,202.98C501.156,196.271 533.903,195.608 554.506,193.548C560.808,192.918 621.427,191.342 622.531,191.374Z" style="fill:rgb(1,1,1);"/>
            </g>
            <g transform="matrix(2.293945,0,0,2.293945,66,957)">
                <path d="M551.405,428.164C545.322,428.568 545.376,428.722 475.5,434.934C463.523,435.871 447.9,437.353 445.502,437.581C432.474,438.35 294.612,446.491 282.51,444.446C280.298,444.073 236.907,444.082 207.501,442.459C199.225,442.002 158.683,437.341 154.443,436.853C148.422,436.161 119.491,430.29 116.461,429.675C67.531,419.746 33.104,388.205 57.129,355.189C91.903,307.401 218.53,238.991 477.429,213.081C628.842,197.929 740.66,204.356 800.467,208.833C819.893,210.287 1022.708,286.626 946.196,342.1C909.967,368.367 845.745,380.685 837.733,383.982C832.256,386.236 774.748,395.573 766.412,399.298C765.166,399.854 658.943,415.497 650.439,417.134C630.273,421.014 568.799,425.638 551.405,428.164Z" style="fill:rgb(241,181,181);"/>
            </g>
            <g transform="matrix(2.293945,0,0,2.293945,66,957)">
                <path d="M833.552,270.528C829.063,274.486 829.896,274.971 827.063,280.113C825.8,282.324 826.052,282.29 825.259,284.435L824.267,287.474C819.946,306.519 802.45,345.775 807.844,367.398C808.155,368.643 813.032,373.621 812.736,375.498C811.998,380.168 815.322,383.208 810.487,382.671C803.375,381.88 791.639,388.772 787.864,370.416C787.711,369.668 785.643,359.615 783.798,361.79C783.014,362.714 783.112,362.571 782.385,363.401C780.693,365.509 775.564,371.444 775.168,374.397C774.598,375.544 770.539,383.711 764.391,386.244C727.919,401.273 711.102,365.775 740.186,328.281C771.457,287.968 785.481,317.83 785.782,318.231C794.479,329.838 812.492,231.023 829.285,245.789C839.956,255.172 838.888,257.284 833.552,270.528ZM775.234,340.316C777.641,336.898 777.625,336.92 777.833,336.624C780.345,333.068 774.262,336.326 770.654,332.358C763.465,324.45 747.706,355.625 746.395,360.468C738.141,390.956 773.571,342.587 775.234,340.316Z"/>
            </g>
            <g transform="matrix(2.293945,0,0,2.293945,66,957)">
                <path d="M325.937,237.74C335.578,234.919 335.422,237.712 340.869,242.012C343.681,244.233 350.011,249.23 330.79,285.659C321.403,303.45 306.506,351.056 307.868,364.431C309.227,377.783 285.796,380.171 284.326,371.542C282.944,363.427 285.278,359.014 285.343,357.523C285.401,356.181 284.386,356.698 270.831,365.983C268.49,367.587 249.367,380.686 237.54,378.231C186.142,367.56 249.173,281.512 280.35,306.695C292.482,316.496 284.408,325.427 269.536,320.391C257.32,316.254 241.048,342.111 239.684,346.558C232.139,371.177 258.636,355.013 281.329,327.331C319.107,281.247 306.8,261.165 325.937,237.74Z"/>
            </g>
            <g transform="matrix(2.293945,0,0,2.293945,66,957)">
                <path d="M503.541,324.488C503.422,325.616 503.659,325.497 504.678,327.469C506.73,345.171 482.181,386.222 473.466,389.434C440.806,401.468 442.71,375.137 438.693,378.748C427.264,389.026 427.482,390.039 412.46,393.062C407.015,394.158 376.138,393.007 412.748,323.632C425.362,299.727 430.553,305.61 434.508,306.08C439.546,306.68 437.168,309.71 441.153,312.917C445.379,316.319 418.559,348.159 416.252,368.533C416.041,370.401 422.188,369.08 444.15,344.199C450.919,336.531 460.663,308.87 470.266,319.724C479.397,330.043 478.097,332.116 469.5,345.5C465.09,352.365 455.853,378.018 465.153,367.215C480.877,348.949 481.455,335.535 485.21,323.401C486.201,320.199 495.805,310.891 503.541,324.488Z"/>
            </g>
            <g transform="matrix(2.293945,0,0,2.293945,66,957)">
                <path d="M687.492,306.073C699.208,309.401 700.46,307.386 708.553,316.437C709.641,317.653 714.676,314.141 720.305,319.698C729.588,328.863 724.528,330.609 719.575,342.53C705.748,375.81 721.104,376.987 721.117,385.546C721.125,390.468 713.976,388.73 713.594,388.826C695.354,393.393 695.601,375.147 691.5,378.499C683.62,384.938 683.542,385.193 673.488,386.329C622.673,392.072 645.055,316.245 687.492,306.073ZM687.155,346.364C700.216,303.652 662.451,346.003 663.62,366.483C663.761,368.956 671.561,375.914 687.155,346.364Z"/>
            </g>
            <g transform="matrix(2.293945,0,0,2.293945,66,957)">
                <path d="M394.793,340.609C362.778,400.661 324.585,376.332 322.335,362.527C317.142,330.679 354.511,287.939 374.581,302.383C376.545,303.797 400.549,296.671 398.347,328.486C398.201,330.598 398.011,330.469 394.793,340.609ZM375.158,319.71C368.236,311.144 347.939,333.674 343.974,345.662C331.134,384.477 385.555,337.717 375.158,319.71Z"/>
            </g>
            <g transform="matrix(2.293945,0,0,2.293945,66,957)">
                <path d="M571.943,382.584C569.108,385.659 568.542,385.465 568.653,389.738C564.425,388.851 545.01,397.361 552.197,370.425C556.317,354.982 557.851,355.689 562.539,340.499C563.827,336.325 558.597,337.58 559.516,339.502C560.241,341.017 560.094,341.13 558.798,341.987C557.579,342.792 548.309,348.92 544.783,353.69C538.672,361.954 527.48,371.441 525.127,383.407C523.757,390.371 511.586,391.172 504.445,387.586C499.078,384.892 497.145,381.359 528.36,316.43C532.186,308.471 539.317,314.722 539.479,314.738C545.776,315.345 541.128,319.94 545.601,324.386C546.96,325.737 568.523,308.424 574.435,311.643C601.431,326.337 573.346,352.915 571.943,382.584Z"/>
            </g>
            <g transform="matrix(2.293945,0,0,2.293945,66,957)">
                <path d="M639.986,327.663C615.52,376.351 617.31,377.029 617.315,377.518C617.396,386.387 588.577,388.837 596.879,367.665C603.284,351.329 633.152,296.788 642.884,274.679C652.21,253.495 655.536,253.928 657.534,254.189C668.705,255.643 669.788,257.184 670.399,268.475C670.539,271.064 668.966,270.526 650.818,304.658C650.012,306.174 650.25,306.261 642.005,324.223C641.872,324.513 641.855,324.478 639.986,327.663Z"/>
            </g>
            <g transform="matrix(2.293945,0,0,2.293945,66,957)">
                <path d="M571.943,382.584C571.403,387.417 573.49,389.869 568.653,389.738C568.542,385.465 569.108,385.659 571.943,382.584Z"/>
            </g>
            <g transform="matrix(2.293945,0,0,2.293945,66,957)">
                <path d="M446.5,438.772C446.566,438.936 448.338,443.363 444.779,440.151C443.565,439.055 445.322,439.716 446.5,438.772Z" style="fill:rgb(69,69,69);"/>
            </g>
            <g transform="matrix(2.293945,0,0,2.293945,66,957)">
                <path d="M476.5,436.657C476.945,437.821 477.674,438.199 476.473,438.368C475.069,438.566 475.833,437.883 476.5,436.657Z" style="fill:rgb(58,58,58);"/>
            </g>
            <g transform="matrix(2.293945,0,0,2.293945,66,957)">
                <path d="M503.541,324.488C503.92,325.482 504.299,326.475 504.678,327.469C503.659,325.497 503.422,325.616 503.541,324.488Z" style="fill:rgb(127,127,127);"/>
            </g>
            <g transform="matrix(2.293945,0,0,2.293945,66,957)">
                <path d="M552.5,429.694C552.547,429.804 554.186,433.593 551.821,431.022C551.741,430.934 551.821,431.022 552.5,429.694Z" style="fill:rgb(52,52,52);"/>
            </g>
        </g>
    </g>
</svg>
